<svg xmlns="http://www.w3.org/2000/svg" viewBox="0 0 19.5 22"><title>Asset 1</title><path d="M17.75,22h-16a.25.25,0,0,1-.25-.25v-6a.25.25,0,0,1,.25-.25h16a.25.25,0,0,1,.25.25v6A.25.25,0,0,1,17.75,22ZM2,21.5H17.5V16H2Z"/><path d="M9.75,14h-8a.25.25,0,0,1-.25-.25v-3a.25.25,0,0,1,.25-.25h8a.25.25,0,0,1,.25.25v3A.25.25,0,0,1,9.75,14ZM2,13.5H9.5V11H2Z"/><path d="M9.75,11h-8a.25.25,0,0,1-.25-.25v-3a.25.25,0,0,1,.25-.25h8a.25.25,0,0,1,.25.25v3A.25.25,0,0,1,9.75,11ZM2,10.5H9.5V8H2Z"/><path d="M9.75,8h-8a.25.25,0,0,1-.18-.43l4-4a.25.25,0,0,1,.35,0l4,4A.25.25,0,0,1,9.75,8Zm-7.4-.5H9.15L5.75,4.1Z"/><path d="M5.75,20h-2a.25.25,0,0,1-.25-.25v-2a.25.25,0,0,1,.25-.25h2a.25.25,0,0,1,.25.25v2A.25.25,0,0,1,5.75,20ZM4,19.5H5.5V18H4Z"/><path d="M10.75,20h-2a.25.25,0,0,1-.25-.25v-2a.25.25,0,0,1,.25-.25h2a.25.25,0,0,1,.25.25v2A.25.25,0,0,1,10.75,20ZM9,19.5h1.5V18H9Z"/><path d="M15.75,20h-2a.25.25,0,0,1-.25-.25v-2a.25.25,0,0,1,.25-.25h2a.25.25,0,0,1,.25.25v2A.25.25,0,0,1,15.75,20ZM14,19.5h1.5V18H14Z"/><path d="M19.25,16H.25A.25.25,0,0,1,0,15.75v-2a.25.25,0,0,1,.25-.25h19a.25.25,0,0,1,.25.25v2A.25.25,0,0,1,19.25,16ZM.5,15.5H19V14H.5Z"/><path d="M8.75,2.5h-3a.25.25,0,0,1-.25-.25v-2A.25.25,0,0,1,5.75,0h3A.25.25,0,0,1,9,.25v2A.25.25,0,0,1,8.75,2.5ZM6,2H8.5V.5H6Z"/><rect x="5.5" y="2.25" width="0.5" height="2"/><path d="M19.25,8H9.75a.25.25,0,0,1,0-.5h9.5a.25.25,0,0,1,0,.5Z"/><path d="M13.25,14a.25.25,0,0,1-.25-.25v-6a.25.25,0,0,1,.5,0v6A.25.25,0,0,1,13.25,14Z"/><path d="M17.25,14a.25.25,0,0,1-.25-.25v-6a.25.25,0,0,1,.5,0v6A.25.25,0,0,1,17.25,14Z"/></svg>