<svg xmlns="http://www.w3.org/2000/svg" viewBox="0 0 23.5 23.48"><title>Asset 1</title><path d="M23.25,23.48l-.1,0-6.88-3.11-8.87,3.1a.25.25,0,0,1-.18,0l-7-3.13A.25.25,0,0,1,0,20.07L0,.25A.25.25,0,0,1,.35,0l7,3.1L16.2,0a.25.25,0,0,1,.19,0l7,3.16a.25.25,0,0,1,.15.23V23.23a.25.25,0,0,1-.25.25ZM.52,19.91l6.8,3,8.87-3.1a.25.25,0,0,1,.19,0l6.62,3V3.57l-6.73-3L7.41,3.62a.25.25,0,0,1-.18,0L.5.63Z"/><path d="M7.31,21l-.09,0L2.16,19A.25.25,0,0,1,2,18.73V3.68a.25.25,0,0,1,.34-.23l5,2,8.86-3a.25.25,0,0,1,.19,0l5,2.42a.25.25,0,0,1,.14.22V19.69a.25.25,0,0,1-.34.23L16.27,18,7.39,21ZM2.5,18.56l4.82,1.91,8.88-3a.24.24,0,0,1,.17,0L21,19.32V5.3L16.26,3,7.41,6a.24.24,0,0,1-.17,0L2.5,4Z"/><rect x="14" y="3.41" width="0.5" height="5.3"/><path d="M11.5,19.42H11V15L7.49,16.2a.25.25,0,0,1-.17,0L2.16,14.31l.17-.47L7.41,15.7l3.76-1.29a.25.25,0,0,1,.33.24Z"/><path d="M14.5,18.41H14V13.71a.25.25,0,0,1,.14-.23l1.92-.92a.25.25,0,0,1,.2,0l5.08,2-.18.47-5-1.92-1.68.8Z"/><path d="M7.25,9.93l-.09,0-5-2,.19-.46,4.92,2,3.89-1,.12.48-4,1Z"/><rect x="4" y="6.71" width="0.5" height="1.77"/><rect x="8" y="7.71" width="0.5" height="1.72"/><rect x="6" y="7.71" width="0.5" height="1.57"/></svg>