<svg xmlns="http://www.w3.org/2000/svg" viewBox="0 0 20.5 20.5"><title>Asset 1</title><path d="M14.25,20.5H.25A.25.25,0,0,1,0,20.25v-14A.25.25,0,0,1,.25,6h14a.25.25,0,0,1,.25.25v14A.25.25,0,0,1,14.25,20.5ZM.5,20H14V6.5H.5Z"/><path d="M20.25,14.5h-14A.25.25,0,0,1,6,14.25V.25A.25.25,0,0,1,6.25,0h14a.25.25,0,0,1,.25.25v14A.25.25,0,0,1,20.25,14.5ZM6.5,14H20V.5H6.5Z"/><rect x="-0.99" y="17" width="8.49" height="0.5" transform="translate(-11.25 7.35) rotate(-45)"/><rect x="13.01" y="17" width="8.49" height="0.5" transform="translate(-7.15 17.25) rotate(-45)"/><rect x="-0.99" y="3" width="8.49" height="0.5" transform="translate(-1.35 3.25) rotate(-45)"/><rect x="13.01" y="3" width="8.49" height="0.5" transform="translate(2.75 13.15) rotate(-45)"/></svg>