<svg xmlns="http://www.w3.org/2000/svg" viewBox="0 0 22.5 23.5"><title>Asset 1</title><path d="M22.25,3.5H.25A.25.25,0,0,1,0,3.25v-3A.25.25,0,0,1,.25,0h22a.25.25,0,0,1,.25.25v3A.25.25,0,0,1,22.25,3.5ZM.5,3H22V.5H.5Z"/><rect x="0.27" y="17" width="21.96" height="0.5"/><path d="M20.25,17.5h-18A.25.25,0,0,1,2,17.25v-14A.25.25,0,0,1,2.25,3h18a.25.25,0,0,1,.25.25v14A.25.25,0,0,1,20.25,17.5ZM2.5,17H20V3.5H2.5Z"/><rect x="11" y="17.25" width="0.5" height="2.94"/><path d="M11.25,23.5A1.75,1.75,0,1,1,13,21.75,1.75,1.75,0,0,1,11.25,23.5Zm0-3a1.25,1.25,0,1,0,1.25,1.25A1.25,1.25,0,0,0,11.25,20.5Z"/><path d="M8.25,14.5a4.25,4.25,0,1,1,4.25-4.25A4.25,4.25,0,0,1,8.25,14.5Zm0-8A3.75,3.75,0,1,0,12,10.25,3.75,3.75,0,0,0,8.25,6.5Z"/><path d="M12.25,10.5h-4A.25.25,0,0,1,8,10.37L6,6.9l.43-.25L8.4,10h3.85Z"/><rect x="8.33" y="10.22" width="0.5" height="4" transform="translate(-1.9 1.58) rotate(-9.49)"/><rect x="15.27" y="6" width="2.94" height="0.5"/><rect x="15.27" y="8" width="2.94" height="0.5"/><rect x="15.27" y="10" width="2.94" height="0.5"/></svg>