<svg xmlns="http://www.w3.org/2000/svg" viewBox="0 0 23.5 23.44"><title>Asset 1</title><path d="M17.18,12.63a1.86,1.86,0,0,1-.35,0A2.57,2.57,0,0,1,15,10.84a2.32,2.32,0,0,1-1.19-1.89,2.49,2.49,0,0,1,1.26-2,6.74,6.74,0,0,1,2.18-.86A6.8,6.8,0,0,0,19.92,5a.25.25,0,0,1,.38.1,7.12,7.12,0,0,1-.91,6.44A3.19,3.19,0,0,1,17.18,12.63ZM20,5.56a7.53,7.53,0,0,1-2.54,1,6.26,6.26,0,0,0-2,.79,2,2,0,0,0-1,1.56,2,2,0,0,0,1,1.52.25.25,0,0,1,.09.11c.36.9.84,1.41,1.44,1.52a2.47,2.47,0,0,0,2.1-.94A6.73,6.73,0,0,0,20,5.56Z"/><path d="M8.4,10.75A4.39,4.39,0,0,1,5.48,9C4,7.26,3.4,2.66,4.73.13A.25.25,0,0,1,5.12.06,9.05,9.05,0,0,0,8.59,1.7,6.48,6.48,0,0,1,12,3.48a3.57,3.57,0,0,1,1.1,3,3.45,3.45,0,0,1-2.21,2.18c-.56,1.22-1.29,1.9-2.16,2ZM5,.64C4,3,4.58,7.15,5.86,8.66c.56.65,1.66,1.72,2.76,1.57.71-.1,1.32-.71,1.81-1.82a.25.25,0,0,1,.13-.13c1.16-.51,1.84-1.14,2-1.87a3.28,3.28,0,0,0-1-2.61h0A6.12,6.12,0,0,0,8.45,2.18,10.12,10.12,0,0,1,5,.64Z"/><path d="M13.25,14.43h0a.25.25,0,0,1-.23-.2A21.5,21.5,0,0,0,6.82,4l.33-.37a22.22,22.22,0,0,1,6.15,9.79,10.71,10.71,0,0,1,4.33-5l.22.45c-2.88,1.44-4.36,5.33-4.38,5.36A.25.25,0,0,1,13.25,14.43Z"/><path d="M4.25,22.5h-4A.25.25,0,0,1,0,22.25v-8A.25.25,0,0,1,.25,14h4a.25.25,0,0,1,.25.25v8A.25.25,0,0,1,4.25,22.5ZM.5,22H4V14.5H.5Z"/><path d="M12.46,23.44c-1.23,0-2.58-.47-5-1.32-.92-.32-2-.7-3.29-1.13l.16-.47c1.29.43,2.38.81,3.3,1.14,5.21,1.83,5.21,1.83,10.23-.87,1.29-.69,2.88-1.55,5-2.6a2.37,2.37,0,0,0-2.5-.7L15.9,19l-.16-.47L20.17,17a3,3,0,0,1,3.26,1.06.25.25,0,0,1-.06.4c-2.23,1.12-3.92,2-5.27,2.75C15.26,22.75,14,23.44,12.46,23.44Z"/><path d="M14.75,19.5H9.25V19h5.5a1,1,0,0,0,.72-.24.69.69,0,0,0,.22-.51c0-.37-.29-.75-.95-.75h-3a.25.25,0,0,1-.18-.07A6.37,6.37,0,0,0,7.25,15.5h-3V15h3a6.83,6.83,0,0,1,4.6,2h2.9a1.26,1.26,0,1,1,0,2.5Z"/></svg>