<svg xmlns="http://www.w3.org/2000/svg" viewBox="0 0 23.5 23.5"><title>Asset 1</title><path d="M3.63,16a2.41,2.41,0,0,1-2.44-2.25A2.19,2.19,0,0,1,3,11.52V7.25h.5v4.5a.25.25,0,0,1-.25.25,1.67,1.67,0,0,0-1.56,1.75A1.92,1.92,0,0,0,3.63,15.5a1.65,1.65,0,0,0,1.63-1.75h.5A2.14,2.14,0,0,1,3.63,16Z"/><path d="M19.25,23.5h-4a.25.25,0,0,1-.25-.25v-16A.25.25,0,0,1,15.25,7h4a.25.25,0,0,1,.25.25v16A.25.25,0,0,1,19.25,23.5ZM15.5,23H19V7.5H15.5Z"/><path d="M13.25,7.5H.25A.25.25,0,0,1,0,7.25v-3A.25.25,0,0,1,.25,4h13a.25.25,0,0,1,.25.25v3A.25.25,0,0,1,13.25,7.5ZM.5,7H13V4.5H.5Z"/><path d="M20.25,7.5h-7A.25.25,0,0,1,13,7.25v-5A.25.25,0,0,1,13.18,2l7-2a.25.25,0,0,1,.22,0,.25.25,0,0,1,.1.2v7A.25.25,0,0,1,20.25,7.5ZM13.5,7H20V.58L13.5,2.44Z"/><path d="M23.25,7.5h-3A.25.25,0,0,1,20,7.25v-3A.25.25,0,0,1,20.25,4h3a.25.25,0,0,1,.25.25v3A.25.25,0,0,1,23.25,7.5ZM20.5,7H23V4.5H20.5Z"/><path d="M12.25,23.5H.25A.25.25,0,0,1,0,23.25v-5A.25.25,0,0,1,.25,18h12a.25.25,0,0,1,.25.25v5A.25.25,0,0,1,12.25,23.5ZM.5,23H12V18.5H.5Z"/><path d="M15.5,5.25H15V3.75a.25.25,0,0,1,.19-.24l2-.5.12.49-1.81.45Z"/></svg>