<svg xmlns="http://www.w3.org/2000/svg" viewBox="0 0 47 47"><title>Asset 1</title><path d="M18.5,27C18.07,27,8,27,8,24.5S18.07,22,18.5,22,29,22,29,24.5,18.93,27,18.5,27Zm0-4c-5.92,0-9.28,1-9.5,1.52C9.22,25,12.58,26,18.5,26s9.19-.95,9.49-1.5C27.68,23.95,24.33,23,18.5,23ZM28,24.52h0Z" fill="#878787"/><path d="M18.5,31C18.07,31,8,31,8,28.5v-4a.5.5,0,0,1,1,0v4c.22.52,3.58,1.5,9.5,1.5s9.28-1,9.5-1.52v-4a.5.5,0,0,1,1,0v4C29,31,18.93,31,18.5,31Z" fill="#878787"/><path d="M18.5,35C18.07,35,8,35,8,32.5v-4a.5.5,0,0,1,1,0v4c.22.52,3.58,1.5,9.5,1.5s9.28-1,9.5-1.52v-4a.5.5,0,0,1,1,0v4C29,35,18.93,35,18.5,35Z" fill="#878787"/><path d="M18.5,39C18.07,39,8,39,8,36.5v-4a.5.5,0,0,1,1,0v4c.22.52,3.58,1.5,9.5,1.5s9.28-1,9.5-1.52v-4a.5.5,0,0,1,1,0v4C29,39,18.93,39,18.5,39Z" fill="#878787"/><path d="M18.5,43C18.07,43,8,43,8,40.5v-4a.5.5,0,0,1,1,0v4c.22.52,3.58,1.5,9.5,1.5s9.28-1,9.5-1.52v-4a.5.5,0,0,1,1,0v4C29,43,18.93,43,18.5,43Z" fill="#878787"/><path d="M18.5,47C18.07,47,8,47,8,44.5v-4a.5.5,0,0,1,1,0v4c.22.52,3.58,1.5,9.5,1.5s9.28-1,9.5-1.52v-4a.5.5,0,0,1,1,0v4C29,47,18.93,47,18.5,47Z" fill="#878787"/><path d="M46.5,29h-18a.5.5,0,0,1,0-1H46V1H1V28H8.5a.5.5,0,0,1,0,1H.5a.5.5,0,0,1-.5-.5V.5A.5.5,0,0,1,.5,0h46a.5.5,0,0,1,.5.5v28A.5.5,0,0,1,46.5,29Z" fill="#878787"/><path d="M23.5,21A6.5,6.5,0,1,1,30,14.5,6.51,6.51,0,0,1,23.5,21Zm0-12A5.5,5.5,0,1,0,29,14.5,5.51,5.51,0,0,0,23.5,9Z" fill="#878787"/><path d="M9.5,11A1.5,1.5,0,1,1,11,9.5,1.5,1.5,0,0,1,9.5,11Zm0-2a.5.5,0,1,0,.5.5A.5.5,0,0,0,9.5,9Z" fill="#878787"/><path d="M37.5,21A1.5,1.5,0,1,1,39,19.5,1.5,1.5,0,0,1,37.5,21Zm0-2a.5.5,0,1,0,.5.5A.5.5,0,0,0,37.5,19Z" fill="#878787"/><path d="M38.5,25h-10a.5.5,0,0,1,0-1h10A3.5,3.5,0,0,0,42,20.5V8.5A3.5,3.5,0,0,0,38.5,5H8.5A3.5,3.5,0,0,0,5,8.5v12A3.5,3.5,0,0,0,8.5,24a.5.5,0,0,1,0,1A4.5,4.5,0,0,1,4,20.5V8.5A4.5,4.5,0,0,1,8.5,4h30A4.5,4.5,0,0,1,43,8.5v12A4.5,4.5,0,0,1,38.5,25Z" fill="#878787"/></svg>