<svg xmlns="http://www.w3.org/2000/svg" viewBox="0 0 20.5 24.5"><title>Asset 1</title><path d="M20.25,24.5H.25A.25.25,0,0,1,0,24.2l2-9.5a.25.25,0,0,1,.24-.2H6.86V15H2.45L.56,24H19.94L18,15H13.86v-.5h4.39a.25.25,0,0,1,.25.2l2,9.5a.25.25,0,0,1-.05.21A.25.25,0,0,1,20.25,24.5Z"/><rect x="0.88" y="21" width="18.74" height="0.5"/><rect x="13.28" y="17.5" width="5.6" height="0.5"/><rect x="1.62" y="17.5" width="5.78" height="0.5"/><rect x="1.95" y="20.25" width="7.56" height="0.5" transform="matrix(0.13, -0.99, 0.99, 0.13, -15.33, 23.55)"/><rect x="14.69" y="16.72" width="0.5" height="7.56" transform="translate(-2.51 2.09) rotate(-7.37)"/><path d="M10.25,20a.25.25,0,0,1-.24-.17L8,13.68a7,7,0,1,1,4.57,0l-2,6.15A.25.25,0,0,1,10.25,20Zm0-19.5a6.53,6.53,0,0,0-2,12.75.25.25,0,0,1,.16.16L10.25,19l1.85-5.55a.25.25,0,0,1,.16-.16A6.53,6.53,0,0,0,10.25.5Z"/><path d="M13.63,6.83H6.88a.25.25,0,0,1-.14-.46l3.37-2.31a.25.25,0,0,1,.28,0l3.38,2.31a.25.25,0,0,1-.14.46Zm-5.94-.5h5.13L10.25,4.58Z"/><path d="M13.43,11.5H7.07a.25.25,0,0,1-.25-.25V7.78a.25.25,0,0,1,.25-.25h6.35a.25.25,0,0,1,.25.25v3.47A.25.25,0,0,1,13.43,11.5ZM7.32,11h5.85V8H7.32Z"/><path d="M9.38,10.34H8.23A.25.25,0,0,1,8,10.09V8.94a.25.25,0,0,1,.25-.25H9.38a.25.25,0,0,1,.25.25v1.16A.25.25,0,0,1,9.38,10.34Zm-.91-.5h.66V9.19H8.48Z"/><path d="M12.27,10.34H11.12a.25.25,0,0,1-.25-.25V8.94a.25.25,0,0,1,.25-.25h1.15a.25.25,0,0,1,.25.25v1.16A.25.25,0,0,1,12.27,10.34Zm-.91-.5H12V9.19h-.66Z"/><path d="M14.29,8H6.21A.25.25,0,0,1,6,7.78V6.63a.25.25,0,0,1,.25-.25h8.09a.25.25,0,0,1,.25.25V7.78A.25.25,0,0,1,14.29,8Zm-7.84-.5H14V6.88H6.46Z"/><path d="M12,3.66H10.25A.25.25,0,0,1,10,3.41V2.25A.25.25,0,0,1,10.25,2H12a.25.25,0,0,1,.25.25V3.41A.25.25,0,0,1,12,3.66Zm-1.48-.5h1.23V2.5H10.5Z"/><rect x="10" y="3.41" width="0.5" height="1.16"/></svg>