<svg xmlns="http://www.w3.org/2000/svg" viewBox="0 0 26.18 23"><title>Asset 1</title><path d="M1.87,23A1.87,1.87,0,0,1,0,21.34a.25.25,0,0,1,0-.08V3.16a.25.25,0,0,1,.5,0v18a1.37,1.37,0,1,0,2.74,0V.25A.25.25,0,0,1,3.49,0H25.93a.25.25,0,0,1,.25.25V21a.25.25,0,0,1-.5,0V.5H3.74V21.13A1.87,1.87,0,0,1,1.87,23Z"/><path d="M1.87,21.24A.25.25,0,0,1,1.62,21V1.8a.25.25,0,0,1,.5,0V21A.25.25,0,0,1,1.87,21.24Z"/><path d="M24.3,23H2.14a.25.25,0,0,1,0-.5H24.3a1.37,1.37,0,0,0,1.37-1.37.25.25,0,0,1,.5,0A1.87,1.87,0,0,1,24.3,23Z"/><path d="M23.76,20.43H15.12a.25.25,0,0,1,0-.5h8.65a.25.25,0,0,1,0,.5Z"/><path d="M23.76,15.34H15.12a.25.25,0,0,1,0-.5h8.65a.25.25,0,1,1,0,.5Z"/><path d="M23.76,12.79H15.12a.25.25,0,0,1,0-.5h8.65a.25.25,0,0,1,0,.5Z"/><path d="M23.76,10.24H15.12a.25.25,0,1,1,0-.5h8.65a.25.25,0,1,1,0,.5Z"/><path d="M23.76,7.69H15.12a.25.25,0,0,1,0-.5h8.65a.25.25,0,0,1,0,.5Z"/><path d="M23.76,17.88H5.93a.25.25,0,0,1,0-.5H23.76a.25.25,0,0,1,0,.5Z"/><path d="M23.76,5.14H5.93a.25.25,0,0,1,0-.5H23.76a.25.25,0,0,1,0,.5Z"/><path d="M23.76,2.59H5.93a.25.25,0,0,1,0-.5H23.76a.25.25,0,0,1,0,.5Z"/><path d="M13,15.3H6.2A.25.25,0,0,1,5.95,15V7.75A.25.25,0,0,1,6.2,7.5H13a.25.25,0,0,1,.25.25V15A.25.25,0,0,1,13,15.3Zm-6.51-.5H12.7V8H6.45Z"/></svg>