<svg xmlns="http://www.w3.org/2000/svg" viewBox="0 0 47 41"><title>Asset 1</title><path d="M8.5,33h-6a.5.5,0,0,1-.5-.5V24c-2-.33-2-2.66-2-3.46v-6A.5.5,0,0,1,.5,14h10a.5.5,0,0,1,.5.5v6c0,.8,0,3.13-2,3.46V32.5A.5.5,0,0,1,8.5,33ZM3,32H8V23.5a.5.5,0,0,1,.5-.5c.9,0,1.5-.42,1.5-2.5V15H1v5.5c0,2.08.6,2.5,1.5,2.5a.5.5,0,0,1,.5.5Z" fill="#878787"/><path d="M44.5,33h-6a.5.5,0,0,1-.5-.5V24c-2-.33-2-2.66-2-3.46v-6a.5.5,0,0,1,.5-.5h10a.5.5,0,0,1,.5.5v6c0,.8,0,3.13-2,3.46V32.5A.5.5,0,0,1,44.5,33ZM39,32h5V23.5a.5.5,0,0,1,.5-.5c.9,0,1.5-.42,1.5-2.5V15H37v5.5c0,2.08.6,2.5,1.5,2.5a.5.5,0,0,1,.5.5Z" fill="#878787"/><path d="M26.5,41h-6a.5.5,0,0,1-.5-.5V29a4.51,4.51,0,0,1-4-4.47v-10a.5.5,0,0,1,.5-.5h14a.5.5,0,0,1,.5.5v10A4.51,4.51,0,0,1,27,29V40.5A.5.5,0,0,1,26.5,41ZM21,40h5V28.5a.5.5,0,0,1,.5-.5A3.5,3.5,0,0,0,30,24.5V15H17v9.5A3.5,3.5,0,0,0,20.5,28a.5.5,0,0,1,.5.5Z" fill="#878787"/><path d="M5.5,11A3.5,3.5,0,1,1,9,7.5,3.5,3.5,0,0,1,5.5,11Zm0-6A2.5,2.5,0,1,0,8,7.5,2.5,2.5,0,0,0,5.5,5Z" fill="#878787"/><path d="M41.5,11A3.5,3.5,0,1,1,45,7.5,3.5,3.5,0,0,1,41.5,11Zm0-6A2.5,2.5,0,1,0,44,7.5,2.5,2.5,0,0,0,41.5,5Z" fill="#878787"/><path d="M23.5,11A5.5,5.5,0,1,1,29,5.5,5.51,5.51,0,0,1,23.5,11Zm0-10A4.5,4.5,0,1,0,28,5.5,4.5,4.5,0,0,0,23.5,1Z" fill="#878787"/></svg>