<svg xmlns="http://www.w3.org/2000/svg" viewBox="0 0 47 41"><title>Asset 1</title><path d="M42.5,41H4.5a.5.5,0,0,1-.5-.5V16.18a.5.5,0,0,1,1,0V40H42V16.18a.5.5,0,0,1,1,0V40.5A.5.5,0,0,1,42.5,41Z" fill="#878787"/><path d="M24.5,35H8.5a.5.5,0,0,1-.5-.5v-12a.5.5,0,0,1,.5-.5h16a.5.5,0,0,1,.5.5v12A.5.5,0,0,1,24.5,35ZM9,34H24V23H9Z" fill="#878787"/><path d="M38.5,41h-10a.5.5,0,0,1-.5-.5v-18a.5.5,0,0,1,.5-.5h10a.5.5,0,0,1,.5.5v18A.5.5,0,0,1,38.5,41ZM29,40h9V23H29Z" fill="#878787"/><path d="M46.5,9H.5a.5.5,0,0,1-.45-.72l4-8A.5.5,0,0,1,4.5,0h38a.5.5,0,0,1,.45.28l4,8A.5.5,0,0,1,46.5,9ZM1.31,8H45.69l-3.5-7H4.81Z" fill="#878787"/><path d="M17.59,19l-.67,0a9,9,0,0,1-6.51-3.7A6,6,0,0,1,4,16.52a6.57,6.57,0,0,1-4-6v-2A.5.5,0,0,1,.5,8h46a.5.5,0,0,1,.5.5v2a6.68,6.68,0,0,1-4,6,6,6,0,0,1-6.41-1.27A9,9,0,0,1,30.1,19a8.34,8.34,0,0,1-6.6-2.45A8.3,8.3,0,0,1,17.59,19ZM10.5,14h.06a.5.5,0,0,1,.37.23A8,8,0,0,0,17,18a7.21,7.21,0,0,0,6.12-2.52.51.51,0,0,1,.75,0A7.38,7.38,0,0,0,30,18a8,8,0,0,0,6.06-3.73.5.5,0,0,1,.37-.23.51.51,0,0,1,.41.14,5.18,5.18,0,0,0,5.76,1.46A5.65,5.65,0,0,0,46,10.5V9H1v1.5a5.64,5.64,0,0,0,3.38,5.1,5.17,5.17,0,0,0,5.77-1.45A.5.5,0,0,1,10.5,14Z" fill="#878787"/><path d="M10.5,15a.5.5,0,0,1-.5-.5v-6a.5.5,0,0,1,0-.12l2-8a.5.5,0,0,1,1,.24L11,8.56V14.5A.5.5,0,0,1,10.5,15Z" fill="#878787"/><path d="M23.5,16.29a.5.5,0,0,1-.5-.5V.5a.5.5,0,0,1,1,0V15.79A.5.5,0,0,1,23.5,16.29Z" fill="#878787"/><path d="M36.5,15a.5.5,0,0,1-.5-.5V8.56L34,.62a.5.5,0,0,1,1-.24l2,8a.5.5,0,0,1,0,.12v6A.5.5,0,0,1,36.5,15Z" fill="#878787"/><path d="M34.5,31.5a1,1,0,1,0,1,1,1,1,0,0,0-1-1Z" fill="#878787"/></svg>