<svg xmlns="http://www.w3.org/2000/svg" viewBox="0 0 24 24"><title>Asset 1</title><path d="M14.5,4H3.5a.5.5,0,0,1,0-1h11a.5.5,0,0,1,0,1Z"/><path d="M8.5,13h-5a.5.5,0,0,1-.5-.5v-6A.5.5,0,0,1,3.5,6h5a.5.5,0,0,1,.5.5v6A.5.5,0,0,1,8.5,13ZM4,12H8V7H4Z"/><path d="M14.5,9h-3a.5.5,0,0,1,0-1h3a.5.5,0,0,1,0,1Z"/><path d="M14.5,11h-4a.5.5,0,0,1,0-1h4a.5.5,0,0,1,0,1Z"/><path d="M14.5,13h-4a.5.5,0,0,1,0-1h4a.5.5,0,0,1,0,1Z"/><path d="M14.5,15H3.5a.5.5,0,0,1,0-1h11a.5.5,0,0,1,0,1Z"/><path d="M14.5,17H3.5a.5.5,0,0,1,0-1h11a.5.5,0,0,1,0,1Z"/><path d="M14.5,19H3.5a.5.5,0,0,1,0-1h11a.5.5,0,0,1,0,1Z"/><path d="M20.5,22A1.5,1.5,0,0,1,19,20.5V2.5H18V4a.5.5,0,0,1-1,0V2a.5.5,0,0,1,.5-.5h2A.5.5,0,0,1,20,2V5h1.5a.5.5,0,0,1,.5.5v15A1.5,1.5,0,0,1,20.5,22ZM20,6V20.5a.5.5,0,0,0,1,0V6Z"/><path d="M20.5,24H3.5A3.5,3.5,0,0,1,0,20.5V.5A.5.5,0,0,1,.5,0h17a.5.5,0,0,1,.5.5v20a2.5,2.5,0,0,0,5,0V4H19.5a.5.5,0,0,1,0-1h4a.5.5,0,0,1,.5.5v17A3.5,3.5,0,0,1,20.5,24ZM1,1V20.5A2.5,2.5,0,0,0,3.5,23H18.05A3.49,3.49,0,0,1,17,20.5V1Z"/></svg>