<svg xmlns="http://www.w3.org/2000/svg" viewBox="0 0 45 45"><title>Asset 1</title><path d="M44.5,45h-2a.5.5,0,0,1,0-1H44V42.5a.5.5,0,0,1,1,0v2A.5.5,0,0,1,44.5,45Z" fill="#878787"/><path d="M20.5,45h-2a.5.5,0,0,1,0-1h2a.5.5,0,1,1,0,1Z" fill="#878787"/><path d="M14.5,45h-2a.5.5,0,0,1,0-1h2a.5.5,0,1,1,0,1Z" fill="#878787"/><path d="M26.5,45h-2a.5.5,0,0,1,0-1h2a.5.5,0,1,1,0,1Z" fill="#878787"/><path d="M32.5,45h-2a.5.5,0,0,1,0-1h2a.5.5,0,0,1,0,1Z" fill="#878787"/><path d="M38.5,45h-2a.5.5,0,0,1,0-1h2a.5.5,0,0,1,0,1Z" fill="#878787"/><path d="M44.5,33a.5.5,0,0,1-.5-.5v-2a.5.5,0,1,1,1,0v2A.5.5,0,0,1,44.5,33Z" fill="#878787"/><path d="M44.5,27a.5.5,0,0,1-.5-.5v-2a.5.5,0,1,1,1,0v2A.5.5,0,0,1,44.5,27Z" fill="#878787"/><path d="M44.5,21a.5.5,0,0,1-.5-.5v-2a.5.5,0,0,1,1,0v2A.5.5,0,0,1,44.5,21Z" fill="#878787"/><path d="M44.5,15a.5.5,0,0,1-.5-.5v-2a.5.5,0,1,1,1,0v2A.5.5,0,0,1,44.5,15Z" fill="#878787"/><path d="M44.5,39a.5.5,0,0,1-.5-.5v-2a.5.5,0,0,1,1,0v2A.5.5,0,0,1,44.5,39Z" fill="#878787"/><path d="M8.5,45a.5.5,0,0,1-.5-.5V8.5A.5.5,0,0,1,8.5,8h36a.5.5,0,1,1,0,1H9V44.5A.5.5,0,0,1,8.5,45Z" fill="#878787"/><path d="M34.5,17a.5.5,0,0,1-.31-.89L43.7,8.5,34.19.89a.5.5,0,0,1,.63-.78l10,8a.5.5,0,0,1,0,.78l-10,8A.5.5,0,0,1,34.5,17Z" fill="#878787"/><path d="M8.5,45a.5.5,0,0,1-.39-.19l-8-10a.5.5,0,0,1,.78-.62L8.5,43.7l7.61-9.51a.5.5,0,1,1,.78.63l-8,10A.5.5,0,0,1,8.5,45Z" fill="#878787"/></svg>