<svg xmlns="http://www.w3.org/2000/svg" viewBox="0 0 190 67.05"><title>Asset 1</title><path d="M0,.4H30.3C41.3.4,43,4,43,11.1v3.1c0,5.3-3,6.8-7,7.2v.1c5.2.9,6.5,3.7,6.5,7.1v9.7H37.7V30c0-5.9-2.9-6.7-7.5-6.7H5.2v15H0ZM29.7,19.1c5.7,0,8.1-1.5,8.1-5.5V10.1c0-4.2-1.8-5.6-9.4-5.6H5.1V19.1Z" fill="#d7a738"/><path d="M50.9.4H56V38.3H50.9Z" fill="#d7a738"/><path d="M63.9,14.2C63.9,4.6,67.1,0,77.4,0H97c9.3,0,11.9,4.3,11.9,9.4v3.2h-4.5V10.9c0-6.4-4-6.8-8.7-6.8H77.9C73,4.1,69,5.6,69,12.2V26.4c0,6.6,4,8.1,8.9,8.1h18c6.9,0,8.9-1.5,8.9-6.6V25.5h4.8v2.6c0,6.9-2.2,10.6-12.8,10.6H77.4c-10.3,0-13.5-4.6-13.5-14.2Z" fill="#d7a738"/><path d="M116.8.4h5.1V16.7h34.2V.4h5.1V38.3h-5.1V20.9H122V38.3h-5.1V.4Z" fill="#d7a738"/><path d="M0,54.5H4.8c2,0,2.5.6,2.5,3,0,2.2-.5,3-2.6,3H0Zm6.6,2.7c0-1.7-.5-2-1.5-2H.9v4.7H5c1,0,1.7-.2,1.7-2v-.7Z" fill="#fff"/><path d="M9.3,54.5h5.9v.7H10.1v1.9H15v.7H10.1v2.1h5.1v.7H9.3Z" fill="#fff"/><path d="M16.7,54.5h.9l2.9,5.2,2.9-5.2h.9l-3.3,6H20Z" fill="#fff"/><path d="M26,54.5h5.9v.7H26.8v1.9h4.9v.7H26.8v2.1h5.1v.7H26Z" fill="#fff"/><path d="M33.7,54.5h.8v5.3h4.6v.7H33.7Z" fill="#fff"/><path d="M40.6,56.7c0-1.5.5-2.2,2.1-2.2h3.4c1.6,0,2.1.7,2.1,2.2v1.6c0,1.5-.5,2.2-2.1,2.2H42.7c-1.6,0-2.1-.7-2.1-2.2Zm6.9-.3c0-1-.6-1.3-1.4-1.3H42.8c-.8,0-1.4.2-1.4,1.3v2.2c0,1,.6,1.3,1.4,1.3h3.3c.8,0,1.4-.2,1.4-1.3Z" fill="#fff"/><path d="M50.2,54.5h4.9c1.1,0,1.7.2,1.7,1.6s-.1,2-1.9,2h-4v2.4h-.8v-6ZM56.1,56c0-.7-.4-.9-1.1-.9H51.1v2.3h4c.6,0,1-.2,1-.8Z" fill="#fff"/><path d="M58.6,54.5h1.3l3.5,5,3.5-5h1.3v6h-.8V55.3h0l-3.6,5.2h-.6l-3.6-5.2h0v5.2h-.8v-6Z" fill="#fff"/><path d="M70.2,54.5H76v.7H71v1.9h4.9v.7H71v2.1h5.1v.7H70.2Z" fill="#fff"/><path d="M77.9,54.5h1.2l5.5,5.2V54.5h.8v6H84.2l-5.5-5.2v5.2h-.8Z" fill="#fff"/><path d="M90,55.2H87v-.7h6.8v.7h-3v5.3H90Z" fill="#fff"/><path d="M99.4,56.7c0-1.5.5-2.2,2.1-2.2h3.1c1.5,0,1.9.7,1.9,1.5v.4h-.7v-.3c0-1-.6-1.1-1.4-1.1h-2.8c-.8,0-1.4.2-1.4,1.3v2.2c0,1,.6,1.3,1.4,1.3h2.8c1.1,0,1.4-.2,1.4-1v-.4h.8v.4c0,1.1-.3,1.7-2,1.7h-3.1c-1.6,0-2.1-.7-2.1-2.2Z" fill="#fff"/><path d="M108.4,56.7c0-1.5.5-2.2,2.1-2.2h3.4c1.6,0,2.1.7,2.1,2.2v1.6c0,1.5-.5,2.2-2.1,2.2h-3.4c-1.6,0-2.1-.7-2.1-2.2Zm6.9-.3c0-1-.6-1.3-1.4-1.3h-3.3c-.8,0-1.4.2-1.4,1.3v2.2c0,1,.6,1.3,1.4,1.3h3.3c.8,0,1.4-.2,1.4-1.3Z" fill="#fff"/><path d="M118.1,54.5h1.3l3.5,5,3.5-5h1.3v6h-.8V55.3h0l-3.6,5.2h-.6l-3.6-5.2h0v5.2h-.8v-6Z" fill="#fff"/><path d="M129.6,54.5h4.9c1.1,0,1.7.2,1.7,1.6s-.1,2-1.9,2h-4v2.4h-.8v-6Zm5.9,1.5c0-.7-.4-.9-1.1-.9h-3.9v2.3h4c.6,0,1-.2,1-.8Z" fill="#fff"/><path d="M140.3,54.5h1l3.5,6H144l-.7-1.3h-4.8l-.7,1.3h-.9Zm.6.7-2,3.4h4Z" fill="#fff"/><path d="M146.5,54.5h1.2l5.5,5.2V54.5h.8v6h-1.2l-5.5-5.2v5.2h-.8Z" fill="#fff"/><path d="M159.1,57.9l-3.4-3.4h1.1l2.7,2.8,2.7-2.8h1.1l-3.4,3.4v2.5h-.8V57.9Z" fill="#fff"/><rect y="45.8" width="190" height="1.2" fill="#d6a737"/><rect x="168.78" y="1.05" width="1.2" height="66" fill="#d6a737"/></svg>